<?xml version="1.0" encoding="utf-8"?>
<!-- Generator: Adobe Illustrator 27.1.0, SVG Export Plug-In . SVG Version: 6.00 Build 0)  -->
<svg version="1.1" xmlns="http://www.w3.org/2000/svg" xmlns:xlink="http://www.w3.org/1999/xlink" x="0px" y="0px"
	 width="273.543304px" height="155.905518px" viewBox="0 0 273.543304 155.905518"
	 enable-background="new 0 0 273.543304 155.905518" xml:space="preserve">
<g id="LOGOS">
	<g>
		<path fill="#2C4491" d="M175.488556,127.385513c-0.407349,0-0.767242-0.076721-1.078888-0.229378
			c-0.311646-0.15345-0.554474-0.386787-0.728485-0.701599c-0.174011-0.314804-0.260223-0.711868-0.260223-1.1912v-2.742302
			h1.123962v2.589645c0,0.431076,0.09729,0.753792,0.29187,0.966568c0.19458,0.212769,0.472214,0.318764,0.831314,0.318764
			c0.264191,0,0.493561-0.053787,0.688141-0.161362c0.19458-0.10836,0.347244-0.269722,0.458771-0.485657
			c0.110733-0.215935,0.166107-0.482491,0.166107-0.800461v-2.427498h1.123962v4.801201h-1.070175v-1.294823l0.189041,0.395485
			c-0.162155,0.311646-0.398651,0.550522-0.710297,0.715042S175.860321,127.385513,175.488556,127.385513z"/>
		<path fill="#2C4491" d="M182.303574,122.467247c0.383621,0,0.726898,0.075142,1.029846,0.22464
			c0.302155,0.14949,0.541031,0.378876,0.715042,0.688141c0.173218,0.308479,0.260223,0.705551,0.260223,1.191208v2.750999
			h-1.123962v-2.60704c0-0.425545-0.100464-0.743515-0.301361-0.953125c-0.200119-0.210396-0.480911-0.314804-0.840012-0.314804
			c-0.264191,0-0.497528,0.053787-0.701599,0.161354c-0.204071,0.108368-0.361481,0.268936-0.472214,0.481705
			s-0.166107,0.480911-0.166107,0.80442v2.42749h-1.123962v-4.801201h1.070175v1.294823l-0.189041-0.395485
			c0.167694-0.306107,0.412109-0.541023,0.732452-0.706337C181.514175,122.549507,181.884354,122.467247,182.303574,122.467247z"/>
		<path fill="#2C4491" d="M189.70311,127.385513c-0.40181,0-0.787003-0.052994-1.155609-0.157402
			c-0.368591-0.105202-0.660461-0.232544-0.876389-0.382042l0.431076-0.854248
			c0.215942,0.137627,0.473801,0.251526,0.773575,0.341698c0.299774,0.089378,0.599548,0.134468,0.899338,0.134468
			c0.353561,0,0.609833-0.047462,0.768036-0.143959c0.158981-0.095703,0.238861-0.224632,0.238861-0.386787
			c0-0.131302-0.053787-0.23175-0.16214-0.300568c-0.107574-0.06881-0.248367-0.121811-0.422379-0.157402
			c-0.174011-0.036385-0.36702-0.068817-0.579788-0.098869c-0.212769-0.03006-0.425537-0.070396-0.638321-0.121811
			c-0.212769-0.050621-0.406555-0.125763-0.580566-0.22464c-0.173218-0.098869-0.314011-0.232544-0.422379-0.40023
			c-0.107574-0.167686-0.161362-0.38916-0.161362-0.665207c0-0.305313,0.086212-0.571083,0.260239-0.795715
			c0.174011-0.22464,0.418411-0.398651,0.733231-0.521255c0.314011-0.122597,0.687347-0.184296,1.119217-0.184296
			c0.323517,0,0.650177,0.035599,0.980011,0.107574c0.329849,0.071976,0.601944,0.174011,0.817871,0.306107l-0.431076,0.854248
			c-0.227798-0.13842-0.457184-0.232544-0.688156-0.283958c-0.230957-0.050621-0.460342-0.075935-0.688141-0.075935
			c-0.340912,0-0.594803,0.050629-0.759323,0.152657c-0.165314,0.102036-0.247589,0.230965-0.247589,0.386787
			c0,0.143959,0.054581,0.251534,0.162155,0.323509s0.248367,0.128929,0.422379,0.170853
			c0.174011,0.041916,0.36702,0.076721,0.579788,0.103615s0.42395,0.06723,0.634354,0.121017
			c0.20961,0.053787,0.402603,0.12735,0.579788,0.22068c0.176376,0.092545,0.318756,0.223053,0.427124,0.390739
			c0.107574,0.167686,0.161362,0.386787,0.161362,0.656509c0,0.299782-0.087799,0.560799-0.264984,0.782272
			c-0.176376,0.221474-0.427124,0.393906-0.750626,0.517296C190.539169,127.323814,190.15239,127.385513,189.70311,127.385513z"/>
		<path fill="#2C4491" d="M195.106247,127.385513c-0.533112,0-0.998993-0.106781-1.397644-0.31955
			c-0.398651-0.212776-0.707916-0.504646-0.926239-0.876396c-0.219086-0.371758-0.328247-0.794136-0.328247-1.267929
			c0-0.479332,0.105988-0.90329,0.318756-1.271889c0.212784-0.368591,0.507019-0.658089,0.881149-0.867691
			c0.374924-0.210403,0.802048-0.314812,1.281372-0.314812c0.467468,0,0.884308,0.102036,1.249741,0.305321
			c0.365433,0.204071,0.653336,0.491982,0.863739,0.863739c0.20961,0.370964,0.314011,0.809166,0.314011,1.312225
			c0,0.048248-0.001572,0.102036-0.003952,0.162148c-0.003159,0.060112-0.007904,0.116272-0.013443,0.170845h-4.001526v-0.746674
			h3.407501l-0.440567,0.234123c0.006332-0.276047-0.050629-0.518875-0.170853-0.728485
			c-0.119431-0.209602-0.283157-0.37413-0.489609-0.494354c-0.20723-0.120224-0.445312-0.180344-0.715042-0.180344
			c-0.275253,0-0.516495,0.06012-0.72374,0.180344c-0.206436,0.120224-0.368591,0.286331-0.485657,0.4991
			c-0.116272,0.212776-0.174805,0.462723-0.174805,0.750633v0.17955c0,0.287918,0.065659,0.54261,0.197739,0.764084
			c0.131302,0.22226,0.317184,0.393112,0.557648,0.51255c0.239655,0.120224,0.514923,0.180344,0.826569,0.180344
			c0.269714,0,0.512543-0.041924,0.728485-0.125771c0.215927-0.084633,0.407349-0.215935,0.575821-0.396278l0.601929,0.692894
			c-0.215942,0.251534-0.487244,0.444527-0.813904,0.579781C195.898804,127.31749,195.52626,127.385513,195.106247,127.385513z"/>
		<path fill="#2C4491" d="M198.441772,127.322235v-4.801201h1.07019v1.321716l-0.125763-0.386787
			c0.143951-0.323509,0.369385-0.569496,0.67865-0.737183c0.308487-0.167686,0.69368-0.251534,1.155609-0.251534v1.069397
			c-0.048248-0.011864-0.093338-0.018982-0.135254-0.022148s-0.083847-0.004745-0.125763-0.004745
			c-0.425537,0-0.764084,0.124977-1.016403,0.373337c-0.251526,0.249161-0.377289,0.619331-0.377289,1.110527v2.328621H198.441772z"
			/>
		<path fill="#2C4491" d="M203.628967,127.322235l-2.058899-4.801201h1.169067l1.770981,4.234863h-0.575043l1.834274-4.234863
			h1.078888l-2.058914,4.801201H203.628967z"/>
		<path fill="#2C4491" d="M208.115372,121.730064c-0.20961,0-0.38205-0.066444-0.51651-0.197746
			c-0.135254-0.132088-0.202484-0.291077-0.202484-0.476952c0-0.191422,0.06723-0.351982,0.202484-0.480911
			c0.13446-0.128929,0.3069-0.193001,0.51651-0.193001c0.209595,0,0.382034,0.060905,0.517288,0.184296
			c0.13446,0.122604,0.202484,0.27684,0.202484,0.462723c0,0.197739-0.066437,0.363846-0.197739,0.4991
			C208.50531,121.662041,208.331299,121.730064,208.115372,121.730064z M207.549026,127.322235v-4.801201h1.123978v4.801201
			H207.549026z"/>
		<path fill="#2C4491" d="M212.350235,127.385513c-0.50386,0-0.951538-0.106781-1.343872-0.31955
			c-0.393112-0.212776-0.699997-0.504646-0.921478-0.876396c-0.22226-0.371758-0.332993-0.794136-0.332993-1.267929
			c0-0.479332,0.110733-0.90329,0.332993-1.271889c0.221481-0.368591,0.528366-0.658089,0.921478-0.867691
			c0.392334-0.210403,0.840012-0.314812,1.343872-0.314812c0.467468,0,0.879562,0.094124,1.236282,0.283173
			c0.356735,0.189041,0.628036,0.465881,0.813919,0.831306l-0.863754,0.503853
			c-0.143158-0.227798-0.318756-0.395485-0.525192-0.503853c-0.207245-0.107567-0.430298-0.161354-0.669952-0.161354
			c-0.276062,0-0.525208,0.060112-0.746689,0.17955c-0.221466,0.120224-0.395477,0.29187-0.52124,0.517296
			c-0.125778,0.224632-0.189041,0.492775-0.189041,0.80442c0,0.311638,0.063263,0.579781,0.189041,0.804413
			c0.125763,0.225433,0.299774,0.397072,0.52124,0.517296c0.221481,0.120232,0.470627,0.17955,0.746689,0.17955
			c0.239655,0,0.462708-0.05378,0.669952-0.161354c0.206436-0.108368,0.382034-0.276047,0.525192-0.503853l0.863754,0.503853
			c-0.185883,0.3591-0.457184,0.636734-0.813919,0.831314C213.229797,127.28743,212.817703,127.385513,212.350235,127.385513z"/>
		<path fill="#2C4491" d="M217.556412,127.385513c-0.533112,0-0.998993-0.106781-1.397644-0.31955
			c-0.398651-0.212776-0.707932-0.504646-0.926239-0.876396c-0.219101-0.371758-0.328247-0.794136-0.328247-1.267929
			c0-0.479332,0.105988-0.90329,0.318756-1.271889c0.212769-0.368591,0.507019-0.658089,0.881149-0.867691
			c0.374924-0.210403,0.802048-0.314812,1.281372-0.314812c0.467468,0,0.884308,0.102036,1.249741,0.305321
			c0.365433,0.204071,0.653336,0.491982,0.863739,0.863739c0.20961,0.370964,0.314011,0.809166,0.314011,1.312225
			c0,0.048248-0.001572,0.102036-0.003952,0.162148c-0.003159,0.060112-0.007904,0.116272-0.013443,0.170845h-4.001526v-0.746674
			h3.407501l-0.440567,0.234123c0.006332-0.276047-0.050629-0.518875-0.170853-0.728485
			c-0.119431-0.209602-0.283173-0.37413-0.489609-0.494354c-0.20723-0.120224-0.445312-0.180344-0.715042-0.180344
			c-0.275253,0-0.51651,0.06012-0.72374,0.180344c-0.206436,0.120224-0.368591,0.286331-0.485657,0.4991
			c-0.116272,0.212776-0.174805,0.462723-0.174805,0.750633v0.17955c0,0.287918,0.065659,0.54261,0.197739,0.764084
			c0.131302,0.22226,0.317184,0.393112,0.557648,0.51255c0.239655,0.120224,0.514923,0.180344,0.826553,0.180344
			c0.26973,0,0.512558-0.041924,0.728485-0.125771c0.215942-0.084633,0.407349-0.215935,0.575836-0.396278l0.601929,0.692894
			c-0.215942,0.251534-0.487244,0.444527-0.813919,0.579781C218.348969,127.31749,217.97641,127.385513,217.556412,127.385513z"/>
		<path fill="#2C4491" d="M225.405228,127.385513c-0.461929,0-0.876404-0.103615-1.244995-0.310852
			c-0.368591-0.206444-0.658081-0.492775-0.867691-0.858208c-0.210403-0.365425-0.314804-0.797295-0.314804-1.294815
			c0-0.497528,0.104401-0.929398,0.314804-1.294823c0.20961-0.365433,0.4991-0.650177,0.867691-0.854248
			c0.368591-0.203285,0.783066-0.305321,1.244995-0.305321c0.40181,0,0.76091,0.088593,1.078888,0.264977
			c0.317963,0.177177,0.569504,0.44532,0.755371,0.80442c0.185883,0.359894,0.278427,0.821823,0.278427,1.384995
			c0,0.557632-0.089386,1.017189-0.26973,1.380241c-0.17955,0.362267-0.428696,0.633568-0.74588,0.813911
			C226.184341,127.295341,225.818909,127.385513,225.405228,127.385513z M225.540482,126.422897
			c0.26973,0,0.510971-0.059319,0.72374-0.17955c0.212769-0.120224,0.382828-0.293449,0.512558-0.521248
			c0.128128-0.227798,0.192993-0.495148,0.192993-0.800461c0-0.311646-0.064865-0.579788-0.192993-0.80442
			c-0.12973-0.225426-0.299789-0.397072-0.512558-0.517296c-0.212769-0.119438-0.45401-0.17955-0.72374-0.17955
			c-0.269714,0-0.511765,0.060112-0.72374,0.17955c-0.213562,0.120224-0.384415,0.29187-0.512543,0.517296
			c-0.128937,0.224632-0.193787,0.492775-0.193787,0.80442c0,0.305313,0.06485,0.572662,0.193787,0.800461
			c0.128128,0.227798,0.298981,0.401024,0.512543,0.521248C225.028717,126.363579,225.270767,126.422897,225.540482,126.422897z
			 M226.996658,127.322235v-1.132668l0.04509-1.276634l-0.090164-1.276627v-2.98513h1.115265v6.671059H226.996658z"/>
		<path fill="#2C4491" d="M231.806564,127.385513c-0.533112,0-0.998993-0.106781-1.397644-0.31955
			c-0.398651-0.212776-0.707932-0.504646-0.926239-0.876396c-0.219086-0.371758-0.328247-0.794136-0.328247-1.267929
			c0-0.479332,0.105988-0.90329,0.318756-1.271889c0.212784-0.368591,0.507019-0.658089,0.881149-0.867691
			c0.374924-0.210403,0.802048-0.314812,1.281372-0.314812c0.467468,0,0.884308,0.102036,1.249741,0.305321
			c0.365433,0.204071,0.653336,0.491982,0.863739,0.863739c0.20961,0.370964,0.314011,0.809166,0.314011,1.312225
			c0,0.048248-0.001572,0.102036-0.003952,0.162148c-0.003159,0.060112-0.007904,0.116272-0.013443,0.170845h-4.001526v-0.746674
			h3.407501l-0.440567,0.234123c0.006332-0.276047-0.050629-0.518875-0.170853-0.728485
			c-0.119431-0.209602-0.283173-0.37413-0.489609-0.494354c-0.20723-0.120224-0.445312-0.180344-0.715042-0.180344
			c-0.275253,0-0.51651,0.06012-0.72374,0.180344c-0.206436,0.120224-0.368591,0.286331-0.485657,0.4991
			c-0.116272,0.212776-0.174805,0.462723-0.174805,0.750633v0.17955c0,0.287918,0.065659,0.54261,0.197739,0.764084
			c0.131302,0.22226,0.317184,0.393112,0.557648,0.51255c0.239655,0.120224,0.514923,0.180344,0.826553,0.180344
			c0.26973,0,0.512558-0.041924,0.728485-0.125771c0.215942-0.084633,0.407364-0.215935,0.575836-0.396278l0.601929,0.692894
			c-0.215942,0.251534-0.487244,0.444527-0.813904,0.579781C232.599121,127.31749,232.226578,127.385513,231.806564,127.385513z"/>
	</g>
	<g>
		<g>
			<path fill="#00A6DD" d="M169.590683,139.030457h-1.418518v2.464203h1.418518c0.680405,0,1.231308-0.552078,1.231308-1.232895
				C170.821991,139.581741,170.271088,139.030457,169.590683,139.030457"/>
		</g>
		<g>
			<g>
				<path fill="#00A6DD" d="M189.416824,137.567642v-3.039963c0-0.142166,0.099899-0.25827,0.25827-0.25827
					c0.148087,0,0.247986,0.105835,0.247986,0.25827v2.823959h1.683487c0.126755,0,0.237717,0.099915,0.237717,0.231812
					c0,0.137421-0.110962,0.242462-0.237717,0.242462h-1.931473C189.522247,137.825912,189.416824,137.710205,189.416824,137.567642
					"/>
				<path fill="#00A6DD" d="M194.254929,136.686661c0,0.084106-0.047379,0.168625-0.189957,0.168625h-1.577637
					c0.026474,0.36409,0.274048,0.638565,0.712418,0.638565c0.274048,0,0.438339-0.095184,0.611679-0.258667
					c0.042252-0.042267,0.100708-0.078979,0.16391-0.078979c0.110962,0,0.206131,0.078979,0.206131,0.20575
					c0,0.052521-0.026474,0.099899-0.063583,0.142548c-0.200607,0.232208-0.559174,0.38504-0.939468,0.38504
					c-0.78627,0-1.203278-0.54892-1.203278-1.208801c0-0.691086,0.501923-1.20842,1.182358-1.20842
					C193.822113,135.472321,194.254929,136.010971,194.254929,136.686661 M193.157501,135.868408
					c-0.364517,0-0.612122,0.25827-0.659897,0.585648h1.298431C193.753784,136.137741,193.516052,135.868408,193.157501,135.868408"
					/>
				<path fill="#00A6DD" d="M197.020309,135.947479c-0.417038,0-0.670166,0.27446-0.670166,0.807587v0.865631
					c0,0.137024-0.105835,0.247986-0.248001,0.247986c-0.158356,0-0.248001-0.110962-0.248001-0.247986v-1.873428
					c0-0.148087,0.105438-0.253525,0.253143-0.253525c0.142532,0,0.242859,0.100296,0.242859,0.253525v0.227066
					c0.08963-0.300919,0.33725-0.491257,0.670166-0.491257c0.142532,0,0.232178,0.100296,0.232178,0.232193
					C197.252487,135.847565,197.151779,135.947479,197.020309,135.947479"/>
				<path fill="#00A6DD" d="M199.605362,136.685989c0,0.084915-0.047806,0.169418-0.189957,0.169418h-1.578064
					c0.026474,0.36409,0.274872,0.638565,0.712418,0.638565c0.27446,0,0.438339-0.095184,0.612106-0.258667
					c0.042664-0.042252,0.100311-0.078979,0.163483-0.078979c0.110977,0,0.206161,0.078979,0.206161,0.205338
					c0,0.052917-0.026855,0.100311-0.063583,0.142563c-0.200226,0.232605-0.559586,0.385437-0.939087,0.385437
					c-0.78627,0-1.203278-0.54892-1.203278-1.208817c0-0.691071,0.501526-1.208405,1.182327-1.208405
					C199.172531,135.472443,199.605362,136.010712,199.605362,136.685989 M198.507889,135.868546
					c-0.364487,0-0.612473,0.258255-0.660278,0.585632h1.298462C199.104202,136.137466,198.86647,135.868546,198.507889,135.868546
					 M198.243729,134.828751l0.29538-0.406357c0.042633-0.058044,0.090027-0.090027,0.169006-0.090027
					c0.110977,0,0.20575,0.074234,0.20575,0.195465c0,0.058441-0.026459,0.105438-0.052521,0.137436l-0.290665,0.395691
					c-0.04184,0.058044-0.100281,0.094772-0.179276,0.094772c-0.110962,0-0.200226-0.094772-0.200226-0.195068
					C198.191177,134.912872,198.217651,134.860352,198.243729,134.828751"/>
				<path fill="#00A6DD" d="M200.93428,137.889618c-0.332535,0-0.627914-0.105438-0.838791-0.269318
					c-0.074234-0.057663-0.105835-0.137039-0.105835-0.20575c0-0.105438,0.084122-0.173752,0.189957-0.173752
					c0.084091,0,0.137024,0.031189,0.195068,0.073441c0.14296,0.105835,0.343567,0.206146,0.596313,0.206146
					c0.28511,0,0.438339-0.105835,0.438339-0.269318c0-0.179688-0.148102-0.248016-0.517334-0.348312
					c-0.648804-0.174149-0.886551-0.395691-0.886551-0.775986c0-0.395309,0.36409-0.653961,0.933945-0.653961
					c0.216797,0,0.459274,0.052521,0.654755,0.14769c0.142563,0.068314,0.242477,0.152832,0.242477,0.25827
					c0,0.095169-0.052521,0.184814-0.189957,0.184814c-0.06871,0-0.137024-0.031204-0.2164-0.073853
					c-0.147705-0.078979-0.311569-0.121231-0.501129-0.121231c-0.264191,0-0.443497,0.06871-0.443497,0.253128
					c0,0.179291,0.158371,0.237732,0.538269,0.348312c0.570236,0.163879,0.865616,0.316711,0.865616,0.7444
					C201.889526,137.604507,201.562164,137.889618,200.93428,137.889618"/>
				<path fill="#00A6DD" d="M204.480423,136.686661c0,0.084106-0.047394,0.168625-0.189957,0.168625h-1.577652
					c0.026474,0.36409,0.274063,0.638565,0.712418,0.638565c0.274048,0,0.437927-0.095184,0.611694-0.258667
					c0.042252-0.042267,0.100693-0.078979,0.163895-0.078979c0.110977,0,0.20575,0.078979,0.20575,0.20575
					c0,0.052521-0.026093,0.099899-0.063202,0.142548c-0.200607,0.232208-0.559174,0.38504-0.939468,0.38504
					c-0.786652,0-1.203278-0.54892-1.203278-1.208801c0-0.691086,0.501923-1.20842,1.182358-1.20842
					C204.047592,135.472321,204.480423,136.010971,204.480423,136.686661 M203.38298,135.868408
					c-0.364517,0-0.612122,0.25827-0.659897,0.585648h1.298431C203.979263,136.137741,203.741531,135.868408,203.38298,135.868408"
					/>
				<path fill="#00A6DD" d="M206.70195,137.868362c-0.147705,0-0.242859-0.110962-0.242859-0.247604v-0.047775
					c-0.157974,0.200607-0.405975,0.316315-0.743607,0.316315c-0.51181,0-0.876312-0.290253-0.876312-0.712006
					c0-0.46994,0.385422-0.717941,0.897232-0.717941c0.29538,0,0.542999,0.110962,0.712418,0.268936v-0.226685
					c0-0.416611-0.174179-0.606964-0.633438-0.606964c-0.221558,0-0.374771,0.042252-0.522446,0.095169
					c-0.047394,0.015793-0.105453,0.042267-0.163498,0.042267c-0.131912,0-0.211288-0.089645-0.211288-0.206146
					c0-0.12085,0.100311-0.184418,0.232208-0.237335c0.18483-0.073853,0.46994-0.115707,0.707672-0.115707
					c0.696213,0,1.086777,0.353043,1.086777,0.997131v1.150742C206.944809,137.757401,206.865433,137.868362,206.70195,137.868362
					 M205.884109,136.802521c-0.332535,0-0.54892,0.137039-0.54892,0.374771c0,0.237335,0.221939,0.374359,0.538239,0.374359
					c0.311584,0,0.575394-0.152817,0.575394-0.374359C206.448822,136.93956,206.163681,136.802521,205.884109,136.802521"/>
				<path fill="#00A6DD" d="M207.762741,135.493652c0.14769,0,0.248001,0.110977,0.248001,0.248001v1.055588
					c0,0.369629,0.200607,0.643692,0.596283,0.643692c0.395706,0,0.622772-0.289871,0.622772-0.648834v-1.050446
					c0-0.137024,0.10585-0.248001,0.24762-0.248001c0.148087,0,0.248383,0.110977,0.248383,0.248001v1.873428
					c0,0.158356-0.105835,0.253525-0.248383,0.253525c-0.137024,0-0.24762-0.078979-0.24762-0.253525v-0.169022
					c-0.14769,0.285126-0.411484,0.443481-0.759796,0.443481c-0.607346,0-0.955276-0.448608-0.955276-1.071381v-1.076508
					C207.514725,135.609756,207.604385,135.493652,207.762741,135.493652"/>
				<path fill="#00A6DD" d="M190.292709,140.749786c0.353836,0,0.643692,0.184814,0.812698,0.453751v-1.40863
					c0-0.137817,0.100327-0.248398,0.248001-0.248398c0.147705,0,0.248016,0.11058,0.248016,0.248398v3.102768
					c0,0.137039-0.084518,0.248001-0.237747,0.248001c-0.152817,0-0.242859-0.116104-0.242859-0.253525v-0.179291
					c-0.157959,0.274063-0.474274,0.453751-0.82811,0.453751c-0.606964,0-1.102982-0.506668-1.102982-1.20842
					C189.189728,141.229996,189.685745,140.749786,190.292709,140.749786 M190.393021,142.755112
					c0.427658,0,0.712387-0.374359,0.712387-0.796921c0-0.42215-0.284729-0.796509-0.712387-0.796509
					c-0.427689,0-0.707275,0.321442-0.707275,0.796509C189.685745,142.433273,189.965332,142.755112,190.393021,142.755112"/>
				<path fill="#00A6DD" d="M194.366562,141.963409c0,0.084518-0.047394,0.169022-0.189957,0.169022h-1.577652
					c0.026474,0.364105,0.274063,0.638565,0.712418,0.638565c0.274048,0,0.437927-0.094772,0.611694-0.258667
					c0.042252-0.042252,0.100693-0.078979,0.164276-0.078979c0.110596,0,0.20575,0.078979,0.20575,0.20575
					c0,0.052917-0.026459,0.100296-0.063583,0.142563c-0.200195,0.231796-0.559174,0.385422-0.939468,0.385422
					c-0.78627,0-1.203278-0.54892-1.203278-1.208405c0-0.691483,0.501923-1.209198,1.182358-1.209198
					C193.933731,140.749481,194.366562,141.288132,194.366562,141.963409 M193.269119,141.145569
					c-0.36412,0-0.612122,0.258667-0.6595,0.585632h1.298035C193.865402,141.414886,193.628082,141.145569,193.269119,141.145569"/>
				<path fill="#00A6DD" d="M196.493195,143.145676c-0.147705,0-0.248016-0.110962-0.248016-0.248001v-1.673203h-0.40123
					c-0.116104,0-0.205734-0.089249-0.205734-0.20575c0-0.115707,0.08963-0.205353,0.205734-0.205353h0.40123v-0.691879
					c0-0.136627,0.100311-0.247986,0.248016-0.247986c0.147675,0,0.248001,0.111359,0.248001,0.247986v0.691879h0.454117
					c0.116104,0,0.205368,0.089645,0.205368,0.205353c0,0.116501-0.089264,0.20575-0.205368,0.20575h-0.454117v1.673203
					C196.741196,143.034714,196.640869,143.145676,196.493195,143.145676"/>
				<path fill="#00A6DD" d="M198.80455,141.224655c-0.417023,0-0.670151,0.27446-0.670151,0.80719v0.865631
					c0,0.137436-0.105835,0.248398-0.248001,0.248398c-0.158356,0-0.248001-0.110962-0.248001-0.248398v-1.873032
					c0-0.148087,0.105438-0.253525,0.253128-0.253525c0.142548,0,0.242874,0.100296,0.242874,0.253525v0.226669
					c0.08963-0.300507,0.337631-0.49086,0.670151-0.49086c0.142548,0,0.232193,0.100311,0.232193,0.232208
					S198.936447,141.224655,198.80455,141.224655"/>
				<path fill="#00A6DD" d="M201.051514,143.145523c-0.147705,0-0.242477-0.110977-0.242477-0.248001v-0.047394
					c-0.158737,0.200607-0.406357,0.316315-0.743988,0.316315c-0.51181,0-0.876312-0.290253-0.876312-0.712006
					c0-0.46994,0.38504-0.718338,0.897232-0.718338c0.29538,0,0.543793,0.111374,0.712418,0.26973v-0.227081
					c0-0.417007-0.174164-0.606567-0.633041-0.606567c-0.221939,0-0.374756,0.041855-0.522842,0.094772
					c-0.047394,0.015411-0.105042,0.042252-0.163498,0.042252c-0.131912,0-0.210876-0.08963-0.210876-0.206131
					c0-0.12085,0.099915-0.184418,0.232193-0.237335c0.184433-0.073853,0.469543-0.116104,0.707275-0.116104
					c0.696213,0,1.086777,0.353439,1.086777,0.997528v1.15036C201.294373,143.034546,201.215393,143.145523,201.051514,143.145523
					 M200.233673,142.079666c-0.33252,0-0.54892,0.137039-0.54892,0.374771c0,0.237335,0.221939,0.374359,0.538239,0.374359
					c0.311584,0,0.575394-0.152817,0.575394-0.374359C200.798386,142.216705,200.513245,142.079666,200.233673,142.079666"/>
				<path fill="#00A6DD" d="M203.853882,143.145676c-0.147705,0-0.248016-0.110962-0.248016-0.248001v-1.055573
					c0-0.369644-0.200607-0.643707-0.596283-0.643707c-0.396118,0-0.622787,0.290268-0.622787,0.649231v1.050049
					c0,0.137039-0.105835,0.248001-0.248398,0.248001c-0.147293,0-0.247589-0.110962-0.247589-0.248001v-1.873428
					c0-0.158356,0.105042-0.253525,0.247589-0.253525c0.137817,0,0.248398,0.078979,0.248398,0.253525v0.169022
					c0.147705-0.285126,0.411499-0.443481,0.759811-0.443481c0.607346,0,0.955276,0.448608,0.955276,1.071381v1.076508
					C204.101883,143.029572,204.012222,143.145676,203.853882,143.145676"/>
				<path fill="#00A6DD" d="M205.574051,143.166687c-0.332535,0-0.627914-0.105835-0.838791-0.269333
					c-0.074234-0.057648-0.105835-0.137024-0.105835-0.205734c0-0.105438,0.084122-0.173767,0.189957-0.173767
					c0.084503,0,0.137024,0.031601,0.195068,0.073456c0.142563,0.105835,0.343552,0.20575,0.596298,0.20575
					c0.285126,0,0.438339-0.105438,0.438339-0.268936c0-0.179291-0.148087-0.248001-0.5177-0.348297
					c-0.648834-0.174164-0.886185-0.395706-0.886185-0.775208c0-0.396088,0.364105-0.654755,0.933945-0.654755
					c0.216812,0,0.45929,0.052521,0.65477,0.147705c0.142151,0.068314,0.242477,0.153214,0.242477,0.258652
					c0,0.094788-0.052521,0.18483-0.189957,0.18483c-0.068726,0-0.137421-0.031601-0.2164-0.074249
					c-0.147705-0.078979-0.310791-0.121628-0.501129-0.121628c-0.264191,0-0.443497,0.069107-0.443497,0.253922
					c0,0.178894,0.158356,0.237335,0.538269,0.347916c0.570236,0.163483,0.865234,0.316711,0.865234,0.744385
					C206.528915,142.881561,206.201935,143.166687,205.574051,143.166687"/>
				<path fill="#00A6DD" d="M208.296555,143.166687c-0.353439,0-0.643692-0.184814-0.812317-0.453751v1.171692
					c0,0.137024-0.100708,0.247604-0.248001,0.247604c-0.148087,0-0.248016-0.11058-0.248016-0.247604v-2.865829
					c0-0.137024,0.084122-0.248001,0.237747-0.248001c0.152817,0,0.242462,0.116501,0.242462,0.25354v0.178879
					c0.158356-0.274063,0.474686-0.453735,0.828125-0.453735c0.607346,0,1.103363,0.50705,1.103363,1.208405
					C209.399918,142.686478,208.9039,143.166687,208.296555,143.166687 M208.196655,141.161362
					c-0.427689,0-0.712418,0.374771-0.712418,0.796524c0,0.422943,0.284729,0.797318,0.712418,0.797318
					c0.427658,0,0.707245-0.321854,0.707245-0.797318C208.9039,141.483597,208.624313,141.161362,208.196655,141.161362"/>
				<path fill="#00A6DD" d="M210.94606,143.166611c-0.733353,0-1.208435-0.543396-1.208435-1.20842
					c0-0.664612,0.475082-1.208405,1.208435-1.208405c0.733719,0,1.208405,0.543793,1.208405,1.208405
					C212.154465,142.623215,211.679779,143.166611,210.94606,143.166611 M210.94606,141.171936
					c-0.464417,0-0.712418,0.358582-0.712418,0.786255c0,0.427292,0.248001,0.786255,0.712418,0.786255
					c0.464401,0,0.712387-0.358963,0.712387-0.786255C211.658447,141.530518,211.410461,141.171936,210.94606,141.171936"/>
				<path fill="#00A6DD" d="M213.806152,141.224655c-0.417023,0-0.670151,0.27446-0.670151,0.80719v0.865631
					c0,0.137436-0.10585,0.248398-0.248001,0.248398c-0.158356,0-0.248001-0.110962-0.248001-0.248398v-1.873032
					c0-0.148087,0.105423-0.253525,0.253128-0.253525c0.142548,0,0.242874,0.100296,0.242874,0.253525v0.226669
					c0.08963-0.300507,0.337631-0.49086,0.670151-0.49086c0.142548,0,0.232193,0.100311,0.232193,0.232208
					S213.937637,141.224655,213.806152,141.224655"/>
				<path fill="#00A6DD" d="M214.882187,143.145676c-0.147705,0-0.248016-0.110962-0.248016-0.248001v-1.673203h-0.401215
					c-0.116119,0-0.20575-0.089249-0.20575-0.20575c0-0.115707,0.08963-0.205353,0.20575-0.205353h0.401215v-0.691879
					c0-0.136627,0.100311-0.247986,0.248016-0.247986c0.147675,0,0.248001,0.111359,0.248001,0.247986v0.691879h0.453735
					c0.116104,0,0.206131,0.089645,0.206131,0.205353c0,0.116501-0.090027,0.20575-0.206131,0.20575h-0.453735v1.673203
					C215.130188,143.034714,215.029861,143.145676,214.882187,143.145676"/>
				<path fill="#00A6DD" d="M190.292709,146.026779c0.353836,0,0.643692,0.184814,0.812698,0.454147v-1.409424
					c0-0.137421,0.100327-0.248001,0.248001-0.248001c0.147705,0,0.248016,0.11058,0.248016,0.248001v3.103165
					c0,0.137024-0.084518,0.248001-0.237747,0.248001c-0.152817,0-0.242859-0.116104-0.242859-0.253128v-0.179688
					c-0.157959,0.27446-0.474274,0.453751-0.82811,0.453751c-0.606964,0-1.102982-0.506668-1.102982-1.208801
					C189.189728,146.506989,189.685745,146.026779,190.292709,146.026779 M190.393021,148.032104
					c0.427658,0,0.712387-0.374756,0.712387-0.797302c0-0.421768-0.284729-0.796524-0.712387-0.796524
					c-0.427689,0-0.707275,0.321838-0.707275,0.796524C189.685745,147.710266,189.965332,148.032104,190.393021,148.032104"/>
				<path fill="#00A6DD" d="M192.614624,146.148178c-0.042664,0.078979-0.095184,0.158356-0.216034,0.158356
					c-0.142548,0-0.2164-0.090042-0.2164-0.174149c0-0.05806,0.026062-0.105835,0.046997-0.153625
					c0.090027-0.205353,0.137421-0.432419,0.137421-0.648834v-0.27919c0-0.132294,0.079391-0.232605,0.216415-0.232605
					s0.216812,0.100311,0.216812,0.232605v0.210876C192.799835,145.536072,192.762299,145.857925,192.614624,146.148178"/>
				<path fill="#00A6DD" d="M195.274109,147.240158c0,0.084915-0.047409,0.169022-0.189575,0.169022h-1.57843
					c0.026459,0.364502,0.27446,0.638962,0.712418,0.638962c0.27446,0,0.437943-0.095169,0.612091-0.258667
					c0.042664-0.042252,0.100311-0.078979,0.163498-0.078979c0.110962,0,0.206146,0.078979,0.206146,0.205353
					c0,0.052917-0.026855,0.100311-0.063583,0.142563c-0.200226,0.23259-0.55957,0.385422-0.939087,0.385422
					c-0.786255,0-1.202881-0.54892-1.202881-1.208801c0-0.691086,0.501129-1.208405,1.181946-1.208405
					C194.841293,146.026627,195.274109,146.564484,195.274109,147.240158 M194.176651,146.422714
					c-0.364487,0-0.612488,0.25827-0.659866,0.585648h1.298035C194.772964,146.691254,194.535233,146.422714,194.176651,146.422714
					 M193.912476,145.382919l0.29538-0.406342c0.042648-0.05806,0.090027-0.089645,0.169022-0.089645
					c0.110962,0,0.205734,0.073837,0.205734,0.195084c0,0.058441-0.026459,0.105438-0.052521,0.137421l-0.290649,0.395691
					c-0.041855,0.05806-0.099915,0.094788-0.179276,0.094788c-0.110977,0-0.200226-0.094788-0.200226-0.195084
					C193.85994,145.467041,193.886398,145.41452,193.912476,145.382919"/>
				<path fill="#00A6DD" d="M196.012695,148.422668c-0.147705,0-0.248016-0.110977-0.248016-0.248001v-3.103561
					c0-0.137024,0.100311-0.247604,0.248016-0.247604c0.14769,0,0.248001,0.11058,0.248001,0.247604v3.103561
					C196.260696,148.311691,196.160385,148.422668,196.012695,148.422668"/>
				<path fill="#00A6DD" d="M199.025894,147.240723c0,0.084106-0.047394,0.168625-0.189957,0.168625h-1.577637
					c0.026459,0.36409,0.274048,0.63855,0.712402,0.63855c0.274063,0,0.437943-0.095169,0.612106-0.258652
					c0.04184-0.04187,0.100296-0.078995,0.163483-0.078995c0.110977,0,0.206131,0.078995,0.206131,0.20575
					c0,0.052521-0.02684,0.100311-0.063583,0.142563c-0.200607,0.232208-0.55957,0.38504-0.939453,0.38504
					c-0.786652,0-1.203278-0.548523-1.203278-1.20842c0-0.691071,0.501923-1.208801,1.182343-1.208801
					C198.593079,146.026382,199.025894,146.565033,199.025894,147.240723 M197.928452,146.42247
					c-0.364502,0-0.612122,0.258667-0.659882,0.586044h1.298431C198.52475,146.691803,198.287018,146.42247,197.928452,146.42247"/>
				<path fill="#00A6DD" d="M201.427094,146.359177c0.042252,0.047379,0.073441,0.095169,0.073441,0.174149
					c0,0.105438-0.084122,0.200607-0.226288,0.200607c-0.090042,0-0.148087-0.073853-0.211288-0.126755
					c-0.121201-0.105453-0.274429-0.163498-0.448593-0.163498c-0.49086,0-0.743988,0.369232-0.743988,0.791382
					c0,0.422165,0.253128,0.791794,0.743988,0.791794c0.174164,0,0.327393-0.05806,0.448593-0.163879
					c0.063202-0.052536,0.121246-0.125977,0.211288-0.125977c0.142166,0,0.226288,0.094772,0.226288,0.199814
					c0,0.079376-0.031189,0.12677-0.073441,0.174545c-0.158356,0.189957-0.485336,0.332123-0.818253,0.332123
					c-0.775208,0-1.234482-0.53273-1.234482-1.20842c0-0.675674,0.459274-1.208405,1.234482-1.208405
					C200.941757,146.026657,201.268738,146.16922,201.427094,146.359177"/>
				<path fill="#00A6DD" d="M202.529831,148.422668c-0.147705,0-0.248016-0.110977-0.248016-0.248001v-1.673218h-0.400818
					c-0.116898,0-0.20575-0.089233-0.20575-0.205338c0-0.116501,0.088852-0.20575,0.20575-0.20575h0.400818v-0.691483
					c0-0.137421,0.100311-0.248398,0.248016-0.248398c0.147675,0,0.248001,0.110977,0.248001,0.248398v0.691483h0.453735
					c0.116104,0,0.206131,0.089249,0.206131,0.20575c0,0.116104-0.090027,0.205338-0.206131,0.205338h-0.453735v1.673218
					C202.777832,148.311691,202.677505,148.422668,202.529831,148.422668"/>
				<path fill="#00A6DD" d="M204.841141,146.501724c-0.416641,0-0.670563,0.274475-0.670563,0.80719v0.865631
					c0,0.137436-0.105438,0.248398-0.248001,0.248398c-0.158356,0-0.247589-0.110962-0.247589-0.248398v-1.873032
					c0-0.148087,0.105423-0.253525,0.253128-0.253525c0.142548,0,0.242462,0.099915,0.242462,0.253525v0.226669
					c0.090042-0.300919,0.338043-0.49086,0.670563-0.49086c0.142548,0,0.232193,0.100311,0.232193,0.232208
					S204.973038,146.501724,204.841141,146.501724"/>
				<path fill="#00A6DD" d="M205.622009,145.108627c0.15834,0,0.290253,0.131897,0.290253,0.290253
					s-0.131912,0.289856-0.290253,0.289856c-0.158356,0-0.290268-0.1315-0.290268-0.289856
					S205.463654,145.108627,205.622009,145.108627 M205.622009,148.422668c-0.147705,0-0.248016-0.110977-0.248016-0.248001
					v-1.878555c0-0.137436,0.105453-0.248398,0.248016-0.248398c0.142548,0,0.248001,0.110962,0.248001,0.248398v1.878555
					C205.87001,148.311691,205.769684,148.422668,205.622009,148.422668"/>
				<path fill="#00A6DD" d="M208.413773,146.359177c0.042252,0.047379,0.073441,0.095169,0.073441,0.174149
					c0,0.105438-0.084122,0.200607-0.226273,0.200607c-0.090057,0-0.148102-0.073853-0.211685-0.126755
					c-0.120819-0.105453-0.27446-0.163498-0.448608-0.163498c-0.490463,0-0.744003,0.369232-0.744003,0.791382
					c0,0.422165,0.25354,0.791794,0.744003,0.791794c0.174149,0,0.327789-0.05806,0.448608-0.163879
					c0.063583-0.052536,0.121628-0.125977,0.211685-0.125977c0.142151,0,0.226273,0.094772,0.226273,0.199814
					c0,0.079376-0.031189,0.12677-0.073441,0.174545c-0.158356,0.189957-0.485336,0.332123-0.817871,0.332123
					c-0.77597,0-1.23526-0.53273-1.23526-1.20842c0-0.675674,0.45929-1.208405,1.23526-1.208405
					C207.928436,146.026657,208.255417,146.16922,208.413773,146.359177"/>
				<path fill="#00A6DD" d="M209.236847,145.108627c0.158325,0,0.289841,0.131897,0.289841,0.290253
					s-0.131516,0.289856-0.289841,0.289856c-0.158356,0-0.290283-0.1315-0.290283-0.289856
					S209.078491,145.108627,209.236847,145.108627 M209.236847,148.422668c-0.147705,0-0.248032-0.110977-0.248032-0.248001
					v-1.878555c0-0.137436,0.105453-0.248398,0.248032-0.248398c0.142548,0,0.247986,0.110962,0.247986,0.248398v1.878555
					C209.484833,148.311691,209.38414,148.422668,209.236847,148.422668"/>
				<path fill="#00A6DD" d="M210.64566,148.422668c-0.147705,0-0.248016-0.110977-0.248016-0.248001v-1.673218h-0.400803
					c-0.116516,0-0.206161-0.089233-0.206161-0.205338c0-0.116501,0.089645-0.20575,0.206161-0.20575h0.400803v-0.691483
					c0-0.137421,0.100311-0.248398,0.248016-0.248398c0.14769,0,0.248001,0.110977,0.248001,0.248398v0.691483h0.453735
					c0.116501,0,0.206131,0.089249,0.206131,0.20575c0,0.116104-0.08963,0.205338-0.206131,0.205338h-0.453735v1.673218
					C210.893661,148.311691,210.79335,148.422668,210.64566,148.422668"/>
				<path fill="#00A6DD" d="M213.858429,147.240158c0,0.084915-0.047791,0.169022-0.189957,0.169022h-1.578049
					c0.026077,0.364502,0.27446,0.638962,0.712418,0.638962c0.27446,0,0.438339-0.095169,0.612091-0.258667
					c0.042252-0.042252,0.100327-0.078979,0.163498-0.078979c0.110977,0,0.20575,0.078979,0.20575,0.205353
					c0,0.052917-0.026443,0.100311-0.063187,0.142563c-0.200211,0.23259-0.55957,0.385422-0.939072,0.385422
					c-0.78627,0-1.203278-0.54892-1.203278-1.208801c0-0.691086,0.501511-1.208405,1.181946-1.208405
					C213.425613,146.026627,213.858429,146.564484,213.858429,147.240158 M212.76059,146.422714
					c-0.364105,0-0.612091,0.25827-0.659485,0.585648h1.29805C213.357285,146.691254,213.119553,146.422714,212.76059,146.422714
					 M212.496811,145.382919l0.29538-0.406342c0.042252-0.05806,0.08963-0.089645,0.169006-0.089645
					c0.110977,0,0.20575,0.073837,0.20575,0.195084c0,0.058441-0.026474,0.105438-0.052521,0.137421l-0.290665,0.395691
					c-0.04184,0.05806-0.100296,0.094788-0.179276,0.094788c-0.110977,0-0.200607-0.094788-0.200607-0.195084
					C212.443878,145.467041,212.470718,145.41452,212.496811,145.382919"/>
				<path fill="#00A6DD" d="M178.574951,140.339722c-0.701752,0-1.306747,0.52681-1.419693,1.154694h2.866608
					C179.92038,140.831772,179.275894,140.339722,178.574951,140.339722"/>
			</g>
			<path fill="#00A6DD" d="M173.800446,130.735764c-6.198822,0-11.223969,5.024765-11.223969,11.223587
				c0,6.199203,5.025146,11.223969,11.223969,11.223969c6.198425,0,11.223984-5.024765,11.223984-11.223969
				C185.024429,135.760529,179.998871,130.735764,173.800446,130.735764 M178.603683,143.978882h1.781799
				c0.264572,0,0.477432,0.216812,0.477432,0.481384c0,0.263016-0.227051,0.480606-0.491241,0.480606h-1.777878
				c-1.345428,0-2.458679-1.080856-2.458679-2.497375h-1.818939v1.093887c0,0.248398,0.182053,0.441498,0.411514,0.441498h0.284317
				c0.265381,0,0.478622,0.21759,0.478622,0.481384c0,0.264603-0.213242,0.480606-0.478622,0.480606h-0.284317
				c-0.783905,0-1.380981-0.561157-1.380981-1.382172c0,0-0.001968-0.995544,0-1.115204h-2.2332l1.265289,1.752197
				c0.154007,0.212067,0.106232,0.509415-0.105835,0.662643c-0.084122,0.060822-0.180481,0.090042-0.27684,0.090042
				c-0.148483,0-0.29303-0.067932-0.387009-0.196274l-1.668457-2.308609h-1.776291v2.030594
				c0,0.263016-0.212067,0.474289-0.475052,0.474289c-0.263016,0-0.475067-0.211273-0.475067-0.474289v-5.918427
				c0-0.265381,0.213623-0.475861,0.475067-0.475861h1.897095c1.205673,0,2.183044,0.978577,2.183044,2.183823
				c0,0.456116-0.162689,0.918549-0.429245,1.230118l2.0065,0.000793v-1.638458c0-0.261429,0.220352-0.47467,0.484131-0.47467
				c0.261047,0,0.484573,0.213242,0.484573,0.47467v1.637665h1.835495c0.152832-1.185501,1.198166-2.110748,2.425903-2.110748
				c1.334,0,2.431824,1.053986,2.418015,2.51593c0,0.285126-0.233002,0.544571-0.511002,0.544571h-3.36026
				C177.123566,143.34111,177.777939,143.978882,178.603683,143.978882"/>
		</g>
	</g>
	<g>
		<g>
			<rect x="221.486084" y="130.735764" fill="#004A98" width="19.042103" height="22.447559"/>
			<rect x="221.909988" y="131.158524" fill="#FFFFFF" width="18.195448" height="21.60146"/>
		</g>
		<g>
			<defs>
				<path id="SVGID_1_" d="M228.911499,136.876968c-0.532562,0.28392-1.000839,0.671982-1.379257,1.136292
					c-0.528015,0.647507-0.87854,1.444687-0.980942,2.316956c-0.020493,0.174683-0.031296,0.351074-0.031296,0.530884
					c0,0.919495,0.274841,1.774704,0.747681,2.4888c0.807404,1.21936,2.193481,2.02449,3.76561,2.02449
					c2.492218,0,4.512756-2.021652,4.512756-4.51329c0-0.242966-0.019348-0.481384-0.056335-0.714096
					c-0.209976-1.321793-0.994049-2.451248-2.087097-3.127792c-0.689056-0.425613-1.499878-0.670853-2.369324-0.670853
					C230.265717,136.348358,229.543091,136.539551,228.911499,136.876968"/>
			</defs>
			<clipPath id="SVGID_00000181079423911976007390000015381861435562365077_">
				<use xlink:href="#SVGID_1_"  overflow="visible"/>
			</clipPath>
			
				<rect x="225.991989" y="135.820328" clip-path="url(#SVGID_00000181079423911976007390000015381861435562365077_)" fill="#8F98CC" width="10.08208" height="10.082084"/>
		</g>
		<g>
			<defs>
				<path id="SVGID_00000164472492940098504630000013348152418243371943_" d="M232.728912,144.427002
					c0,0,0.057465,0.0569,0.055771,0.0569l0.068268-0.0495c-0.001144,0-0.04837-0.054062-0.04837-0.054062
					C232.804581,144.38205,232.728912,144.427002,232.728912,144.427002 M232.815979,143.968964l-0.181503,0.037552
					l-0.399445,0.393173l0.023895,0.087051l0.058029-0.007965l0.228165-0.098434
					c0.059769-0.025024,0.246399-0.12973,0.343124-0.234421c0.091614-0.098434,0.119507-0.137695,0.172989-0.238419
					l-0.103012-0.021042L232.815979,143.968964z M231.341141,141.035782l-0.056915-0.007401l-0.003967,0.1064l0.056885,0.010239
					l0.034134-0.137131l-0.018188-0.006821L231.341141,141.035782z M230.914383,140.532776h0.000565H230.914383z
					 M230.95079,140.490112v-0.00058V140.490112z M227.970947,140.44458l0.020477,0.085358l0.080826-0.026749l-0.027328-0.086487
					L227.970947,140.44458z M228.110931,140.360367l-0.003998,0.043243c0.001709,0,0.063736-0.02446,0.063736-0.02446
					l-0.025604-0.052353C228.145065,140.326797,228.109787,140.356964,228.110931,140.360367 M230.839279,140.335342
					l0.098999,0.027878l0.029037-0.091049l-0.069427-0.017639L230.839279,140.335342z M228.062561,140.23291l0.024475,0.060318
					l0.07338-0.033005c0,0-0.019897-0.054047-0.022186-0.054047L228.062561,140.23291z M235.489716,140.148712v-0.001709V140.148712
					z M231.083939,140.118546l0.021042,0.022766c0,0-0.114914,0.280518-0.114914,0.281082c0,0,0.181488,0.017639,0.181488,0.019348
					l0.04213-0.231018l-0.031876-0.023895l0.021637-0.077957l-0.08992-0.050064L231.083939,140.118546z M228.012482,140.036606
					l0.014786,0.092178l0.087067-0.000565l-0.011948-0.099579L228.012482,140.036606z M227.930557,139.865341l0.044937,0.070557
					l0.085922,0.013092l0.038132-0.173553l-0.139969-0.034134L227.930557,139.865341z M229.522034,139.475586l0.205978,0.114365
					l0.08252-0.158188l-0.240112-0.038681L229.522034,139.475586z M227.855438,139.645142l0.141693,0.017639l0.043823-0.335709
					l0.001709-0.099579l-0.02504-0.101852l-0.07283-0.005692L227.855438,139.645142z M230.53772,138.86618l-0.201431,0.177536
					v0.120621l0.320892,0.079666l0.637283-0.434158l-0.0159-0.176376l-0.25322-0.088196L230.53772,138.86618z
					 M230.467712,138.591354l-0.172958,0.013092l-0.198013,0.285629l0.107544,0.067154l0.266266-0.169006l0.204285-0.217346
					l-0.037552-0.17981l-0.058029-0.002274L230.467712,138.591354z M230.587769,138.156647l0.145096,0.104126l0.32663-0.332291
					l-0.062592-0.09787L230.587769,138.156647z M232.68512,137.304855l0.707245-0.150223l0.144547,0.111526l-0.199173,0.128021
					l-0.164444,0.191193L232.68512,137.304855z M232.845001,137.074982l-0.080215-0.035278l-0.345383,0.03299l-0.087067-0.025604
					l-0.607132,0.138275l-0.023895,0.216782l0.734589,0.804001l-0.015381,0.171265l-0.111511-0.006821l-0.098434,0.217926
					l0.15361,0.694168l-0.229874,0.216217l0.030746,0.202576l-0.085922,0.002274l-0.068283-0.13884l-0.281097-0.08876
					l-0.199722,0.266861l-0.204269,0.21109l0.093903,0.151367l0.168991-0.013092l0.028442,0.075668l0.066574-0.007965
					l0.119507-0.338547l0.070526,0.050064l-0.08136,0.183228l0.029587,0.033569l-0.055191,0.191177l-0.186081,0.04837
					c-0.01535-0.069427-0.052887-0.120636-0.052887-0.120636l-0.066025-0.003983l-0.018753,0.142822l-0.108109,0.030151
					l-0.064865,0.101288c-0.026184,0.030151-0.093323,0.045517-0.159897,0.041534
					c-0.056885-0.003403-0.156494-0.028442-0.159332-0.029007c0.001144,0.001129-0.033554,0.042664-0.035843,0.042664
					c0.001694,0.001709,0.026184,0.026749,0.02504,0.027893c0,0,0.04039,0.029007,0.027328,0.08876
					c-0.009689,0.048355-0.061462,0.095581-0.143982,0.095581c-0.026154,0-0.051193-0.002274-0.075684-0.007965l-0.040939-0.009674
					l-0.09787,0.246948l0.265717,0.200287c0.010239,0.007401,0.120056-0.08136,0.260605-0.21109
					c0.041534-0.039261,0.123459-0.068848,0.172394-0.068848c0.035843,0,0.059738,0.01535,0.095612,0.032425
					c0.100708,0.047226,0.141098,0.215652,0.138809,0.212234l-0.044937,0.009109l0.013641,0.031296l0.129745-0.025604
					l-0.107544-0.270279l0.031876-0.007401l0.228729,0.227036l0.644119,0.180939l-0.126907,0.330597l-0.507523-0.132019
					l-0.118958,0.014801l-0.252609-0.169556l-0.831314-0.124619l-0.427887,0.211105
					c-0.061432,0.030151-0.117218,0.098434-0.184341,0.226456c-0.124603,0.238983-0.190079,0.382935-0.209976,0.465439
					l-0.028442,0.117783l0.268555,0.499008l0.640137,0.643539c0.032425,0.033005-0.014252,0.168427-0.112671,0.326035
					c-0.026184,0.043243-0.072266,0.166718-0.136551,0.367584c-0.044388,0.136551-0.106415,0.250351-0.184372,0.335129
					c-0.169556,0.186066-0.260574,0.287918-0.265717,0.302704l-0.1064,0.302155c0,0.009659,0.013641,0.019913,0.034729,0.027298
					c0.157043,0.052917,0.316345,0.079666,0.475082,0.079666c0.241257,0,0.506973-0.066574,0.743683-0.187775
					c0.134308-0.068268,0.270294-0.148514,0.404556-0.239548c0.137146-0.091614,0.253799-0.181503,0.351074-0.266861
					c0.014236-0.011948,0.080231-0.073395,0.198578-0.183777c0.092178-0.086487,0.175247-0.147949,0.245819-0.181519
					c0.035278-0.017075,0.058029-0.034698,0.063721-0.048935l0.220215-0.558182l0.489334-0.467712l0.252625-0.411957
					l-0.063141-0.127457l-0.249802,0.050064l-0.61734-0.706696l0.150192-0.01593l0.57811,0.599716l0.312943-0.25206
					l0.20256-0.290192l0.093872-0.152481l0.036438-0.080231l-0.228729-0.182083l-0.264587,0.073975l-0.151917-0.131439
					l0.336838-0.102417l0.265152,0.044373l0.412521-0.092178l0.539398,0.438141l0.192886-0.001144
					c0.036438-0.157623,0.042679-0.210526,0.042679-0.37326c0-0.175262-0.022736-0.354492-0.068268-0.534286
					c-0.021606-0.087067-0.034134-0.145676-0.038132-0.174698l-0.006805-0.062576l0.104675-0.092178l0.225311,0.052917
					l0.352814-0.302139c-0.209976-1.320648-0.994049-2.450684-2.087097-3.126083v-0.001129L232.845001,137.074982z
					 M230.702164,137.127319c-0.312393,0.022202-0.944565-0.117218-0.944565-0.117218l-0.627029-0.093872l-0.218475-0.038696
					c-0.532608,0.283356-1.001434,0.670853-1.379852,1.135147l-0.019333,0.591766l-0.093872,0.270844l-0.224182,0.783508
					l0.071686,0.220779l-0.355637,0.051208l-0.359024,0.399429c-0.020493,0.174118-0.030731,0.351074-0.030731,0.531448
					c0,0.918365,0.274261,1.774139,0.746536,2.487656l-0.000595,0.00058h0.001144c0-0.00058-0.000549-0.00058-0.000549-0.00058
					l0.311798-0.258316l0.256607,0.064865l0.683945-0.516083l0.033585-0.275406l-0.450668-0.656052
					c-0.007401-0.009674-0.035843-0.421051-0.122879-0.728317c-0.046112-0.159882-0.151382-0.627029-0.155334-0.636139
					l-0.059189-0.118927l-0.428452-0.64296l0.277664-0.695892l0.221924-0.009094l0.013092-0.102417l-0.164444-0.137131
					l-0.005142-0.029587l-0.005112-0.13031c0-0.08876,0.150772-0.177521,0.249771-0.177521
					c0.027344,0,0.055786,0.003983,0.084808,0.012512c0.069992,0.018784,0.135406,0.076248,0.19574,0.120056
					c0.010803,0.007401,0.197433,0.442688,0.197433,0.442688l-0.158752,0.127457l-0.077408,0.190048l0.108109,0.085342
					l0.150803-0.26004l0.624771,0.209976l0.382919,0.217346l0.115509-0.126312l0.321487,0.026749l0.235565-0.320358
					l-0.212784-0.080795l0.223022-0.26857l-0.026733-0.08989l-0.339691-0.065445l0.260025-0.273682l0.247513,0.161591
					l-0.005707,0.072266l0.159897,0.019913l0.135437-0.256042l-0.094452-0.083084l0.397705-0.382355l0.359619-0.168427
					l0.279953-0.183792l0.054626-0.042099l0.011398-0.197449l-0.047821-0.139404l-0.124619-0.047791l0.159348-0.124619
					l-0.043243-0.023331C231.392914,136.92305,231.141418,137.096024,230.702164,137.127319"/>
			</defs>
			<clipPath id="SVGID_00000004507851945225146320000008528531065969035437_">
				<use xlink:href="#SVGID_00000164472492940098504630000013348152418243371943_"  overflow="visible"/>
			</clipPath>
			
				<rect x="225.993134" y="136.324463" clip-path="url(#SVGID_00000004507851945225146320000008528531065969035437_)" fill="#124490" width="10.024604" height="9.31109"/>
		</g>
		<g>
			<path fill="#E2251D" d="M225.462021,133.378769l0.212234,0.673126h-0.438705L225.462021,133.378769z M225.207108,132.422272
				l-0.917252,2.522385h0.648102l0.124054-0.374985h0.775528l0.116653,0.374985h0.648087l-0.917236-2.522385H225.207108z"/>
		</g>
		<g>
			<defs>
				<path id="SVGID_00000015325155454744870660000008753066643043508895_" d="M227.927704,132.975342h0.273148
					c0.155899,0,0.240662,0.056335,0.297546,0.141113c0.04953,0.071121,0.066589,0.141678,0.066589,0.566727
					c0,0.429581-0.017059,0.496735-0.066589,0.567856c-0.056885,0.084778-0.141647,0.141678-0.297546,0.141678h-0.273148V132.975342
					z M227.308075,132.422272v2.522949h0.93486c0.262314,0,0.506424-0.074554,0.680511-0.248657
					c0.29361-0.29361,0.261169-0.616791,0.261169-1.013382c0-0.396027,0.03244-0.719223-0.261169-1.013397
					c-0.174088-0.173538-0.418198-0.247513-0.680511-0.247513H227.308075z"/>
			</defs>
			<clipPath id="SVGID_00000103227601626597958170000015042370971118934701_">
				<use xlink:href="#SVGID_00000015325155454744870660000008753066643043508895_"  overflow="visible"/>
			</clipPath>
			
				<rect x="226.780609" y="131.893677" clip-path="url(#SVGID_00000103227601626597958170000015042370971118934701_)" fill="#E2251D" width="2.933759" height="3.578432"/>
		</g>
		<g>
			<polygon fill="#E2251D" points="230.026794,132.422272 230.026794,134.944656 231.74115,134.944656 231.74115,134.392151 
				230.646973,134.392151 230.646973,133.949478 231.581848,133.949478 231.581848,133.396408 230.646973,133.396408 
				230.646973,132.974777 231.74115,132.974777 231.74115,132.422272 			"/>
			<polygon fill="#E2251D" points="234.342545,132.422272 233.775803,133.534668 233.209106,132.422272 232.600266,132.422272 
				232.600266,134.944656 233.21991,134.944656 233.21991,133.736664 233.577225,134.360291 233.973831,134.360291 
				234.331711,133.736664 234.331711,134.944656 234.951355,134.944656 234.951355,132.422272 			"/>
			<polygon fill="#E2251D" points="235.870697,132.422272 235.870697,134.944656 237.584488,134.944656 237.584488,134.392151 
				236.490326,134.392151 236.490326,133.949478 237.425186,133.949478 237.425186,133.396408 236.490326,133.396408 
				236.490326,132.974777 237.584488,132.974777 237.584488,132.422272 			"/>
			<path fill="#E2251D" d="M224.897324,147.166458l0.11322,0.35733h-0.233276L224.897324,147.166458z M224.792068,146.793747
				l-0.401749,1.103867h0.261749l0.055786-0.168427h0.366974l0.052368,0.168427h0.262314l-0.401718-1.103867H224.792068z"/>
		</g>
		<g>
			<defs>
				<path id="SVGID_00000173139332079185205830000003567313031776075952_" d="M225.799652,146.907272
					c-0.109802,0.110947-0.109802,0.261169-0.109253,0.419342v0.037567c-0.000549,0.158752-0.000549,0.30896,0.109253,0.419342
					c0.084229,0.084213,0.181534,0.123474,0.306137,0.123474c0.139954,0,0.235565-0.036987,0.318634-0.122894l0.000565-0.00058
					c0.080215-0.08136,0.110397-0.181503,0.110397-0.36644v-0.143387h-0.417099v0.204285h0.167297v0.029587
					c0,0.053482-0.01709,0.099564-0.047226,0.12973c-0.029602,0.032425-0.074539,0.048355-0.132568,0.048355
					c-0.051224,0-0.095016-0.019333-0.120651-0.052917c-0.026733-0.034698-0.043793-0.073395-0.043793-0.287338
					c0-0.212234,0.017059-0.250931,0.043793-0.286209c0.026184-0.033569,0.071136-0.054626,0.120651-0.054626
					c0.093872,0,0.14566,0.038696,0.171249,0.127457h0.254349c-0.020477-0.115494-0.101852-0.348221-0.425598-0.348221
					C225.978897,146.783798,225.885574,146.822495,225.799652,146.907272"/>
			</defs>
			<clipPath id="SVGID_00000071545039562332287550000011876503314617212849_">
				<use xlink:href="#SVGID_00000173139332079185205830000003567313031776075952_"  overflow="visible"/>
			</clipPath>
			
				<rect x="225.161819" y="146.256332" clip-path="url(#SVGID_00000071545039562332287550000011876503314617212849_)" fill="#E2251D" width="1.901026" height="2.178696"/>
		</g>
		<g>
			<polygon fill="#E2251D" points="226.959915,146.793747 226.959915,147.897614 227.701859,147.897614 227.701859,147.67627 
				227.21138,147.67627 227.21138,147.451523 227.630737,147.451523 227.630737,147.230179 227.21138,147.230179 
				227.21138,147.015106 227.701859,147.015106 227.701859,146.793747 			"/>
			<polygon fill="#E2251D" points="228.73616,146.793747 228.73616,147.394043 228.35376,146.793747 228.131287,146.793747 
				228.131287,147.897614 228.382797,147.897614 228.382797,147.297318 228.765152,147.897614 228.987625,147.897614 
				228.987625,146.793747 			"/>
		</g>
		<g>
			<defs>
				<path id="SVGID_00000021832360759301610820000001995861303472501632_" d="M229.523178,146.907272
					c-0.110947,0.110382-0.110947,0.261169-0.110947,0.419342v0.037567c0,0.158752,0,0.30896,0.110947,0.419342
					c0.084229,0.084213,0.180389,0.123474,0.304993,0.123474c0.221329,0,0.370972-0.124039,0.412506-0.341965h-0.256607
					c-0.015945,0.054626-0.051773,0.120621-0.15419,0.120621c-0.051224,0-0.095016-0.019333-0.120056-0.052338
					c-0.027344-0.035858-0.046097-0.076813-0.046097-0.287918c0-0.21109,0.018753-0.252075,0.046097-0.286774
					c0.02504-0.034134,0.068832-0.054062,0.120056-0.054062c0.102417,0,0.138245,0.066574,0.15419,0.121201h0.256607
					c-0.041534-0.217361-0.191177-0.341965-0.412506-0.341965C229.703568,146.783798,229.607407,146.823059,229.523178,146.907272"
					/>
			</defs>
			<clipPath id="SVGID_00000151531793467232094850000015183578697777678762_">
				<use xlink:href="#SVGID_00000021832360759301610820000001995861303472501632_"  overflow="visible"/>
			</clipPath>
			
				<rect x="228.884766" y="146.256332" clip-path="url(#SVGID_00000151531793467232094850000015183578697777678762_)" fill="#E2251D" width="1.883939" height="2.178696"/>
		</g>
		<g>
			<polygon fill="#E2251D" points="230.622604,146.793747 230.622604,147.897614 231.364548,147.897614 231.364548,147.67627 
				230.874069,147.67627 230.874069,147.451523 231.293427,147.451523 231.293427,147.230179 230.874069,147.230179 
				230.874069,147.015106 231.364548,147.015106 231.364548,146.793747 			"/>
		</g>
		<g>
			<defs>
				<path id="SVGID_00000159471769351524016670000010858236160492994232_" d="M232.768738,147.014801h0.134293
					c0.067139,0,0.112671,0.022202,0.145111,0.069427c0.02504,0.035843,0.032425,0.075104,0.032425,0.261734
					c0,0.198013-0.008545,0.227036-0.032425,0.261734c-0.03244,0.047241-0.077972,0.069427-0.145111,0.069427h-0.134293V147.014801z
					 M232.517273,146.794037v1.104431h0.40567c0.122894,0,0.225311-0.037567,0.295334-0.108109
					c0.115509-0.116074,0.114349-0.239548,0.11377-0.396591v-0.047806v-0.047791
					c0.00058-0.157043,0.00174-0.281082-0.11377-0.396591c-0.070023-0.071121-0.17244-0.107544-0.295334-0.107544H232.517273z"/>
			</defs>
			<clipPath id="SVGID_00000158019341117498704070000010740064055544411825_">
				<use xlink:href="#SVGID_00000159471769351524016670000010858236160492994232_"  overflow="visible"/>
			</clipPath>
			
				<rect x="231.988663" y="146.266006" clip-path="url(#SVGID_00000158019341117498704070000010740064055544411825_)" fill="#E2251D" width="1.871437" height="2.159917"/>
		</g>
		<g>
			<polygon fill="#E2251D" points="233.756714,146.794098 233.756714,147.897949 234.498657,147.897949 234.498657,147.67662 
				234.007629,147.67662 234.007629,147.451859 234.427536,147.451859 234.427536,147.230515 234.007629,147.230515 
				234.007629,147.015442 234.498657,147.015442 234.498657,146.794098 			"/>
			<polygon fill="#E2251D" points="235.651688,146.793747 235.651688,147.897614 236.377701,147.897614 236.377701,147.67627 
				235.903168,147.67627 235.903168,146.793747 			"/>
			<path fill="#E2251D" d="M237.128128,147.166458l0.112656,0.35733h-0.233307L237.128128,147.166458z M237.022858,146.793747
				l-0.402298,1.103867h0.262299l0.055786-0.168427h0.366974l0.052368,0.168427h0.261719l-0.401108-1.103867H237.022858z"/>
			<polygon fill="#E2251D" points="224.43248,148.592865 224.43248,148.814209 224.710693,148.814209 224.710693,149.696732 
				224.962204,149.696732 224.962204,148.814209 225.241013,148.814209 225.241013,148.592865 			"/>
		</g>
		<g>
			<defs>
				<path id="SVGID_00000117637757735447764680000008631250708471724439_" d="M226.148438,148.815689h0.170731
					c0.087021,0,0.134262,0.06543,0.134262,0.127457c0,0.061447-0.047241,0.127457-0.134262,0.127457h-0.170731V148.815689z
					 M225.896973,148.593216v1.103287h0.251465v-0.420486h0.115509l0.200867,0.420486h0.291901l-0.240112-0.463745
					l0.010803-0.006256c0.042114-0.021042,0.177536-0.101852,0.177536-0.283356c0-0.174118-0.128021-0.34993-0.372711-0.34993
					H225.896973z"/>
			</defs>
			<clipPath id="SVGID_00000106835482913857423970000011534290749198359214_">
				<use xlink:href="#SVGID_00000117637757735447764680000008631250708471724439_"  overflow="visible"/>
			</clipPath>
			
				<rect x="225.368912" y="148.065186" clip-path="url(#SVGID_00000106835482913857423970000011534290749198359214_)" fill="#E2251D" width="1.91582" height="2.159917"/>
		</g>
		<g>
			<path fill="#E2251D" d="M227.799652,148.965561l0.11322,0.35733h-0.233826L227.799652,148.965561z M227.693832,148.592865
				l-0.401733,1.103867h0.262299l0.055222-0.168427h0.368134l0.052338,0.168427h0.262299l-0.402267-1.103867H227.693832z"/>
			<polygon fill="#E2251D" points="229.511856,148.592865 229.511856,149.193161 229.128906,148.592865 228.905884,148.592865 
				228.905884,149.696732 229.157944,149.696732 229.157944,149.096436 229.540314,149.696732 229.763336,149.696732 
				229.763336,148.592865 			"/>
		</g>
		<g>
			<defs>
				<path id="SVGID_00000015352349482614981710000011597337594138232503_" d="M230.433563,148.92778
					c0,0.092743,0.025635,0.166718,0.07457,0.217361c0.04834,0.050064,0.122314,0.08194,0.21962,0.095016l0.136566,0.019913
					c0.036423,0.005127,0.06427,0.015945,0.081924,0.034149c0.018219,0.019348,0.026184,0.044373,0.026184,0.075668
					c0,0.052353-0.030151,0.114944-0.175247,0.114944c-0.051224,0-0.175827-0.007401-0.252655-0.073975l-0.159302,0.159317
					c0.09787,0.095032,0.221893,0.136002,0.410248,0.136002c0.211639,0,0.423904-0.105835,0.423904-0.342545
					c0-0.107544-0.026184-0.184921-0.079666-0.237839c-0.046082-0.046082-0.118912-0.076248-0.215073-0.090469l-0.137146-0.018784
					c-0.036392-0.004547-0.06543-0.017059-0.085327-0.037552c-0.023346-0.022751-0.026184-0.050629-0.026184-0.061447
					c0-0.056335,0.047226-0.117783,0.150192-0.117783h0.007996c0.050629,0,0.136551-0.000565,0.205978,0.061447l0.157043-0.155899
					c-0.08992-0.084778-0.202576-0.121765-0.363617-0.121765C230.594055,148.583542,230.433563,148.721237,230.433563,148.92778"/>
			</defs>
			<clipPath id="SVGID_00000063623428328738607170000013545307389062402222_">
				<use xlink:href="#SVGID_00000015352349482614981710000011597337594138232503_"  overflow="visible"/>
			</clipPath>
			
				<rect x="229.857178" y="148.055511" clip-path="url(#SVGID_00000063623428328738607170000013545307389062402222_)" fill="#E2251D" width="1.890225" height="2.178696"/>
		</g>
		<g>
			<rect x="231.897049" y="148.592636" fill="#E2251D" width="0.251507" height="1.103858"/>
			<polygon fill="#E2251D" points="232.804276,148.592865 232.804276,148.814209 233.081924,148.814209 233.081924,149.696732 
				233.334549,149.696732 233.334549,148.814209 233.612793,148.814209 233.612793,148.592865 			"/>
			<rect x="234.268051" y="148.592636" fill="#E2251D" width="0.251507" height="1.103858"/>
		</g>
		<g>
			<defs>
				<path id="SVGID_00000096034480325907553230000013436565196213090230_" d="M235.502213,149.429642
					c-0.027878-0.036423-0.044373-0.073395-0.044373-0.2845c0-0.212814,0.017075-0.251495,0.044373-0.285645
					c0.026184-0.034134,0.071686-0.054611,0.121765-0.054611c0.04953,0,0.095612,0.020477,0.121765,0.054611
					c0.026733,0.034149,0.044373,0.07283,0.044373,0.285645c0,0.211105-0.017044,0.248077-0.044373,0.2845
					c-0.021057,0.026169-0.063141,0.055191-0.121765,0.055191C235.565948,149.484833,235.52327,149.455811,235.502213,149.429642
					 M235.316727,148.706436c-0.110397,0.110382-0.110397,0.260605-0.109802,0.419357v0.038116
					c-0.000595,0.158188-0.000595,0.308395,0.109802,0.419357c0.085327,0.085342,0.180389,0.12291,0.307251,0.12291
					c0.126892,0,0.221359-0.037567,0.307281-0.123474c0.110367-0.110397,0.110367-0.260605,0.110367-0.418793v-0.038116
					c0-0.158752,0-0.308975-0.110367-0.419357c-0.085922-0.085342-0.180389-0.122894-0.307281-0.122894
					C235.497116,148.583542,235.402054,148.621094,235.316727,148.706436"/>
			</defs>
			<clipPath id="SVGID_00000099620788135557156220000013194878429579654070_">
				<use xlink:href="#SVGID_00000096034480325907553230000013436565196213090230_"  overflow="visible"/>
			</clipPath>
			
				<rect x="234.678314" y="148.055511" clip-path="url(#SVGID_00000099620788135557156220000013194878429579654070_)" fill="#E2251D" width="1.891336" height="2.178696"/>
		</g>
		<g>
			<polygon fill="#E2251D" points="237.333267,148.592865 237.333267,149.193161 236.950302,148.592865 236.727829,148.592865 
				236.727829,149.696732 236.97934,149.696732 236.97934,149.096436 237.362259,149.696732 237.585327,149.696732 
				237.585327,148.592865 			"/>
			<polygon fill="#E2251D" points="224.43367,150.390564 224.43367,151.498398 225.178467,151.498398 225.178467,151.276489 
				224.686279,151.276489 224.686279,151.050598 225.106186,151.050598 225.106186,150.82869 224.686279,150.82869 
				224.686279,150.612473 225.178467,150.612473 225.178467,150.390564 			"/>
			<polygon fill="#E2251D" points="224.792068,149.992325 224.720947,150.25235 224.854645,150.25235 225.025345,149.992325 			"/>
		</g>
		<g>
			<defs>
				<path id="SVGID_00000133523007631738710500000014395176084776270733_" d="M225.914612,150.505051
					c-0.110962,0.110947-0.110962,0.261734-0.110962,0.420486v0.038116c0,0.158752,0,0.30954,0.110962,0.421066
					c0.084183,0.083633,0.181488,0.123474,0.305542,0.123474c0.222473,0,0.372681-0.125183,0.414215-0.343109h-0.257172
					c-0.01709,0.054626-0.051773,0.120621-0.155334,0.120621c-0.050079,0-0.094467-0.019348-0.120071-0.052917
					c-0.026733-0.035263-0.046082-0.076248-0.046082-0.287903c0-0.212234,0.019348-0.253769,0.046082-0.289062
					c0.025604-0.03299,0.069992-0.052917,0.120071-0.052917c0.103561,0,0.138245,0.066574,0.155334,0.12178h0.257172
					c-0.041534-0.218506-0.191742-0.343109-0.414215-0.343109C226.0961,150.381577,225.998795,150.420258,225.914612,150.505051"/>
			</defs>
			<clipPath id="SVGID_00000100343239411727838370000016509333080025879946_">
				<use xlink:href="#SVGID_00000133523007631738710500000014395176084776270733_"  overflow="visible"/>
			</clipPath>
			
				<rect x="225.275604" y="149.853546" clip-path="url(#SVGID_00000100343239411727838370000016509333080025879946_)" fill="#E2251D" width="1.886787" height="2.182677"/>
		</g>
		<g>
			<defs>
				<path id="SVGID_00000032638333750425292560000003694391167852965310_" d="M227.508347,151.22995
					c-0.027298-0.036423-0.043793-0.07341-0.043793-0.285065c0-0.213943,0.016495-0.250931,0.043793-0.286774
					c0.026749-0.034714,0.072281-0.055206,0.12236-0.055206c0.049484,0,0.095566,0.020493,0.12175,0.055206
					c0.027893,0.035843,0.044388,0.07283,0.044388,0.286774c0,0.211655-0.016495,0.248642-0.044388,0.285065
					c-0.026733,0.035278-0.072266,0.055756-0.12175,0.055756C227.580627,151.285706,227.535095,151.265228,227.508347,151.22995
					 M227.322861,150.505051c-0.111511,0.110947-0.111511,0.261734-0.110947,0.420486v0.038116
					c-0.000565,0.158752-0.000565,0.30954,0.110947,0.421066c0.084778,0.085342,0.179794,0.123474,0.307846,0.123474
					c0.126862,0,0.221909-0.038132,0.307831-0.123474c0.110367-0.111526,0.110367-0.261749,0.110367-0.421066v-0.038681
					c0-0.158752,0-0.308975-0.110367-0.419922c-0.085358-0.086487-0.180969-0.123474-0.307831-0.123474
					C227.502655,150.381577,227.407639,150.418564,227.322861,150.505051"/>
			</defs>
			<clipPath id="SVGID_00000166633266023331337450000004908933755643019951_">
				<use xlink:href="#SVGID_00000032638333750425292560000003694391167852965310_"  overflow="visible"/>
			</clipPath>
			
				<rect x="226.683884" y="149.853546" clip-path="url(#SVGID_00000166633266023331337450000004908933755643019951_)" fill="#E2251D" width="1.892482" height="2.182677"/>
		</g>
		<g>
			<polygon fill="#E2251D" points="228.706253,150.390564 228.706253,151.498398 229.434555,151.498398 229.434555,151.276489 
				228.958313,151.276489 228.958313,150.390564 			"/>
		</g>
		<g>
			<defs>
				<path id="SVGID_00000063613521772605560980000005647676365709448634_" d="M230.280518,151.22995
					c-0.027893-0.036423-0.044388-0.07341-0.044388-0.285065c0-0.213379,0.017654-0.25264,0.044388-0.286774
					c0.025589-0.034714,0.071686-0.055206,0.122345-0.055206c0.0495,0,0.095032,0.020493,0.12117,0.055206
					c0.027893,0.035843,0.043839,0.07283,0.043839,0.286774c0,0.211655-0.015945,0.248642-0.043839,0.285065
					c-0.026733,0.035278-0.072235,0.055756-0.12117,0.055756C230.343689,151.285706,230.30101,151.257263,230.280518,151.22995
					 M230.095581,150.505051c-0.112061,0.110947-0.112061,0.261734-0.111511,0.420486v0.038116
					c-0.000549,0.158752-0.000549,0.30954,0.111511,0.421066c0.084229,0.085342,0.179245,0.123474,0.307281,0.123474
					c0.126877,0,0.221893-0.038132,0.307251-0.123474c0.110962-0.111526,0.110962-0.262314,0.110367-0.421066v-0.038116
					c0.000595-0.158752,0.000595-0.30954-0.110367-0.420486c-0.085358-0.086487-0.180374-0.123474-0.307251-0.123474
					C230.274826,150.381577,230.17981,150.418564,230.095581,150.505051"/>
			</defs>
			<clipPath id="SVGID_00000039103580193785778980000008151137602522878092_">
				<use xlink:href="#SVGID_00000063613521772605560980000005647676365709448634_"  overflow="visible"/>
			</clipPath>
			
				<rect x="229.456055" y="149.853546" clip-path="url(#SVGID_00000039103580193785778980000008151137602522878092_)" fill="#E2251D" width="1.892482" height="2.182677"/>
		</g>
		<g>
			<defs>
				<path id="SVGID_00000110453774723200396170000008971994734207866026_" d="M231.552216,150.505051
					c-0.110367,0.110947-0.110367,0.261734-0.110367,0.420486v0.037552c0,0.159882,0,0.310104,0.110367,0.421631
					c0.084808,0.083633,0.182083,0.123474,0.306137,0.123474c0.141113,0,0.23671-0.036987,0.320892-0.123474
					c0.080261-0.082504,0.110962-0.182083,0.110962-0.368713v-0.144531h-0.418198v0.206558h0.166733v0.029007
					c0,0.053497-0.016541,0.100143-0.046677,0.13031c-0.030151,0.032425-0.075119,0.048355-0.133713,0.048355
					c-0.050629,0-0.093872-0.019348-0.120056-0.052917c-0.027328-0.034698-0.044388-0.073395-0.044388-0.288467
					c0-0.212814,0.017059-0.252075,0.044388-0.286209c0.026184-0.034714,0.070541-0.055206,0.120056-0.055206
					c0.095016,0,0.146805,0.038132,0.172989,0.128036h0.254318c-0.019897-0.116074-0.101822-0.349365-0.427307-0.349365
					C231.73204,150.381577,231.637589,150.418564,231.552216,150.505051"/>
			</defs>
			<clipPath id="SVGID_00000019649199835359569230000006246819752334752667_">
				<use xlink:href="#SVGID_00000110453774723200396170000008971994734207866026_"  overflow="visible"/>
			</clipPath>
			
				<rect x="230.913803" y="149.853546" clip-path="url(#SVGID_00000019649199835359569230000006246819752334752667_)" fill="#E2251D" width="1.903873" height="2.182677"/>
		</g>
		<g>
			<rect x="232.946823" y="150.390686" fill="#E2251D" width="0.252618" height="1.107839"/>
		</g>
		<g>
			<defs>
				<path id="SVGID_00000155853664168640839360000007344471692536702344_" d="M234.153137,151.22995
					c-0.027328-0.036423-0.043823-0.07341-0.043823-0.285065c0-0.213379,0.01709-0.25264,0.043823-0.286774
					c0.026154-0.034714,0.071686-0.055206,0.122314-0.055206c0.050079,0,0.095612,0.020493,0.121765,0.055206
					c0.026184,0.034134,0.043823,0.073395,0.043823,0.286774c0,0.08136-0.003403,0.135422-0.006256,0.168427l-0.001724,0.027878
					l-0.06543-0.064865l-0.123474,0.123474l0.080231,0.079086l-0.024445,0.005692
					c-0.00914,0.001129-0.015945,0.001129-0.02449,0.001129C234.216873,151.285706,234.173599,151.257263,234.153137,151.22995
					 M233.967621,150.505051c-0.110962,0.110947-0.110962,0.261734-0.110962,0.420486v0.037552
					c0,0.159882,0,0.310104,0.110962,0.421631c0.085358,0.085342,0.180374,0.123474,0.307831,0.123474
					c0.084213,0,0.153641-0.01651,0.213379-0.050644l0.008545-0.005127l0.085327,0.085358l0.12291-0.12291l-0.08078-0.08136
					l0.005692-0.008545c0.063721-0.101837,0.063141-0.228729,0.063141-0.362442v-0.036987
					c0-0.158752,0.00058-0.30954-0.110962-0.420486c-0.085327-0.086487-0.179794-0.123474-0.307251-0.123474
					S234.052979,150.418564,233.967621,150.505051"/>
			</defs>
			<clipPath id="SVGID_00000046326728953342666570000010848404247614969984_">
				<use xlink:href="#SVGID_00000155853664168640839360000007344471692536702344_"  overflow="visible"/>
			</clipPath>
			
				<rect x="233.328644" y="149.853546" clip-path="url(#SVGID_00000046326728953342666570000010848404247614969984_)" fill="#E2251D" width="1.904429" height="2.212266"/>
		</g>
		<g>
			<defs>
				<path id="SVGID_00000005264506987913811920000000662020284080791188_" d="M235.91362,150.390106v0.716934
					c0,0.109818-0.064316,0.178665-0.166153,0.178665c-0.100708,0-0.16333-0.068848-0.16333-0.178665v-0.716934h-0.252609v0.72377
					c0,0.228729,0.174683,0.394318,0.415939,0.394318c0.242386,0,0.418213-0.165588,0.418213-0.394318v-0.72377H235.91362z"/>
			</defs>
			<clipPath id="SVGID_00000160910271013422752750000017168214865755261341_">
				<use xlink:href="#SVGID_00000005264506987913811920000000662020284080791188_"  overflow="visible"/>
			</clipPath>
			
				<rect x="234.804062" y="149.86264" clip-path="url(#SVGID_00000160910271013422752750000017168214865755261341_)" fill="#E2251D" width="1.889635" height="2.173005"/>
		</g>
		<g>
			<polygon fill="#E2251D" points="236.8405,150.390564 236.8405,151.498398 237.584732,151.498398 237.584732,151.276489 
				237.093109,151.276489 237.093109,151.050598 237.513611,151.050598 237.513611,150.82869 237.093109,150.82869 
				237.093109,150.612473 237.584732,150.612473 237.584732,150.390564 			"/>
		</g>
	</g>
</g>
<g id="TEXTE_OK">
	<rect x="0.708661" y="120.413483" fill="#D9D9D9" width="130.393707" height="34.402931"/>
	<g>
		<text transform="matrix(1 0 0 1 160.556168 42.150063)" font-family="'ArialMT'" font-size="9px" fill="cmyk(0%, 0%, 0%, 100%)" letter-spacing="-0.3">
			<tspan x="-3" y="0"  font-weight="bold">EcoWatt</tspan><tspan>, port par </tspan><tspan font-weight="bold">RTEE</tspan>
			<tspan x="-19.106934" y="10">et </tspan><tspan font-weight="bold">l&apos;Ademe</tspan><tspan>, qualifie en temps rel</tspan>
			<tspan x="-14.737305" y="20">le niveau dlectricit disponible</tspan><tspan x="-7.816406" y="30">en France.  chaque instant,</tspan>
			<tspan x="-19.412598" y="40">des signaux de couleur vous aident</tspan>
			<tspan x="-10.471191" y="50"> adopter les bons gestes afin</tspan>
			<tspan x="-6.520508" y="60">de limiter la consommation</tspan>
			<tspan x="2.650391" y="70">nationale dlectricit.</tspan>
		</text>
	</g>
	<g>
		<text transform="matrix(0.917405 0 0 1 9.0005 128.947433)" font-family="'ArialMT'" font-style="italic" font-size="7px" fill="cmyk(0%, 0%, 0%, 100%)">
			<tspan x="0" y="0">Consommation tenable</tspan>
			<tspan x="0" y="8.399902">Systme lectrique tendu</tspan>
			<tspan x="0" y="16.799805">Systme trs tendu, coupures invitables</tspan>
			<tspan x="0" y="23.799805">sans baisse de la consommation</tspan>
		</text>
	</g>
	<rect x="1.435455" y="123.734459" fill="#51AD32" width="5.263147" height="5.263147"/>
	<rect x="1.435455" y="132.234467" fill="#F6A500" width="5.263147" height="5.263147"/>
	<rect x="1.435455" y="140.734467" fill="#E20613" width="5.263147" height="5.263147"/>
</g>
</svg>
